<?xml version="1.0" encoding="UTF-8" standalone="no"?>
<!-- Created with Inkscape (http://www.inkscape.org/) -->

<svg
   width="173.64703mm"
   height="29.571241mm"
   viewBox="0 0 173.64703 29.571241"
   version="1.1"
   id="svg1"
   inkscape:version="1.4.4 (dcaf3e7d9e, 2026-05-05)"
   sodipodi:docname="logotextdark.svg"
   xmlns:inkscape="http://www.inkscape.org/namespaces/inkscape"
   xmlns:sodipodi="http://sodipodi.sourceforge.net/DTD/sodipodi-0.dtd"
   xmlns="http://www.w3.org/2000/svg"
   xmlns:svg="http://www.w3.org/2000/svg">
  <sodipodi:namedview
     id="namedview1"
     pagecolor="#ffffff"
     bordercolor="#000000"
     borderopacity="0.25"
     inkscape:showpageshadow="2"
     inkscape:pageopacity="0.0"
     inkscape:pagecheckerboard="0"
     inkscape:deskcolor="#d1d1d1"
     inkscape:document-units="mm"
     inkscape:zoom="1.0116647"
     inkscape:cx="260.46179"
     inkscape:cy="167.54563"
     inkscape:window-width="1920"
     inkscape:window-height="1012"
     inkscape:window-x="0"
     inkscape:window-y="0"
     inkscape:window-maximized="1"
     inkscape:current-layer="layer1" />
  <defs
     id="defs1">
    <rect
       x="37.7435"
       y="48.926762"
       width="724.11609"
       height="311.73337"
       id="rect1" />
  </defs>
  <g
     inkscape:label="Layer 1"
     inkscape:groupmode="layer"
     id="layer1"
     transform="translate(-11.15487,-14.964922)">
    <path
       style="font-size:48px;font-family:Cantarell;-inkscape-font-specification:Cantarell;white-space:pre;fill:#ffffff"
       d="m 42.160141,92.032337 h 3.984 v -11.616 h 5.664 c 7.44,0 12.432,-4.416 12.432,-11.088 0,-6.384 -4.704,-10.608 -11.712,-10.608 h -10.368 z m 3.984,-15.072 v -14.784 h 5.904 c 4.848,0 8.112,3.168 8.112,7.872 0,4.512 -2.688,6.912 -7.632,6.912 z m 25.440007,25.488003 h 4.08 l 3.84,-10.416003 9.024,-23.136 h -3.84 l -6.96,19.392 -6.816,-19.392 h -4.272 l 9.12,23.136 z M 93.520126,92.032337 h 3.984 v -11.616 h 5.664004 c 7.44,0 12.432,-4.416 12.432,-11.088 0,-6.384 -4.704,-10.608 -11.712,-10.608 H 93.520126 Z m 3.984,-15.072 v -14.784 h 5.904004 c 4.848,0 8.112,3.168 8.112,7.872 0,4.512 -2.688,6.912 -7.632,6.912 z m 38.208004,15.072 h 2.688 v -15.024 c 0,-5.52 -3.264,-8.592 -9.312,-8.592 -3.024,0 -6.288,0.816 -8.784,2.208 l 0.96,2.832 c 2.4,-1.056 4.8,-1.584 7.056,-1.584 4.128,0 6.24,1.728 6.24,5.136 v 1.536 c -10.368,0.096 -14.88,2.256 -14.88,7.2 0,4.128 3.072,6.768 7.824,6.768 2.928,0 5.424,-0.96 7.296,-2.64 z m -1.152,-5.184 c -1.44,1.44 -3.552,2.304 -5.952,2.304 -3.072,0 -5.088,-1.536 -5.088,-3.84 0,-2.88 3.264,-4.08 11.04,-4.128 z m 27.21596,5.184 h 3.84 v -15.168 c 0,-5.136 -3.408,-8.448 -8.592,-8.448 -2.64,0 -5.28,0.912 -7.488,2.544 l -0.864,-2.064 h -2.688 v 23.136 h 3.84 v -18.096 c 1.776,-1.392 3.888,-2.16 6.144,-2.16 3.744,0 5.808,2.112 5.808,5.856 z m 19.77597,10.896003 c 6.672,0 11.04,-4.608003 11.04,-11.568003 v -22.464 h -2.688 l -0.72,1.968 c -1.68,-1.584 -3.984,-2.448 -6.672,-2.448 -6.432,0 -10.8,4.848 -10.8,12.192 0,7.152 4.128,11.904 10.32,11.904 2.688,0 4.992,-0.912 6.72,-2.544 v 1.968 c 0,5.136 -2.304,7.68 -6.912,7.68 -2.064,0 -4.56,-0.528 -6.72,-1.44 l -0.816,2.928003 c 2.4,1.2 4.848,1.824 7.248,1.824 z m 7.2,-28.272003 v 11.856 c -1.296,1.68 -3.264,2.64 -5.616,2.64 -4.608,0 -7.584,-3.6 -7.584,-8.928 0,-5.088 2.688,-8.448 7.152,-8.448 2.592,0 4.656,1.056 6.048,2.88 z m 21.11999,17.856 c 6.816,0 11.424,-4.944 11.424,-12.336 0,-7.152 -4.272,-11.76 -10.848,-11.76 -6.816,0 -11.376,4.896 -11.376,12.288 0,7.152 4.224,11.808 10.8,11.808 z m 0.528,-3.36 c -4.464,0 -7.488,-3.6 -7.488,-8.928 0,-5.136 2.736,-8.448 7.008,-8.448 4.464,0 7.536,3.648 7.536,8.928 0,5.088 -2.784,8.448 -7.056,8.448 z m 22.60797,3.168 c 1.248,0 2.736,-0.288 3.648,-0.768 l -0.864,-2.688 c -0.576,0.24 -1.104,0.384 -1.68,0.384 -1.632,0 -2.496,-1.104 -2.496,-2.88 v -29.808 h -3.84 v 30.288 c 0,3.312 2.064,5.472 5.232,5.472 z m 8.112,-0.288 h 3.84 v -23.136 h -3.84 z m 1.968,-28.56 c 1.728,0 2.736,-1.008 2.736,-2.736 0,-1.728 -1.008,-2.736 -2.736,-2.736 -1.728,0 -2.736,1.008 -2.736,2.736 0,1.728 1.008,2.736 2.736,2.736 z m 25.63201,28.56 h 3.84 v -15.168 c 0,-5.136 -3.408,-8.448 -8.592,-8.448 -2.64,0 -5.28,0.912 -7.488,2.544 l -0.864,-2.064 h -2.688 v 23.136 h 3.84 v -18.096 c 1.776,-1.392 3.888,-2.16 6.144,-2.16 3.744,0 5.808,2.112 5.808,5.856 z m 13.58397,0.48 c 1.824,0 3.072,-1.296 3.072,-3.072 0,-1.776 -1.248,-3.072 -3.072,-3.072 -1.824,0 -3.072,1.296 -3.072,3.072 0,1.776 1.248,3.072 3.072,3.072 z m 0,-17.472 c 1.824,0 3.072,-1.296 3.072,-3.072 0,-1.776 -1.248,-3.072 -3.072,-3.072 -1.824,0 -3.072,1.296 -3.072,3.072 0,1.776 1.248,3.072 3.072,3.072 z M 42.160141,157.90966 h 3.984 v -11.616 h 5.664 c 7.44,0 12.432,-4.416 12.432,-11.088 0,-6.384 -4.704,-10.608 -11.712,-10.608 h -10.368 z m 3.984,-15.072 v -14.784 h 5.904 c 4.848,0 8.112,3.168 8.112,7.872 0,4.512 -2.688,6.912 -7.632,6.912 z m 25.440007,25.488 h 4.08 l 3.84,-10.416 9.024,-23.136 h -3.84 l -6.96,19.392 -6.816,-19.392 h -4.272 l 9.12,23.136 z m 29.423982,-10.176 c 1.584,0 3.168,-0.384 4.272,-0.864 l -0.864,-2.784 c -0.72,0.336 -1.776,0.528 -2.592,0.528 -2.400004,0 -3.984004,-1.536 -3.984004,-3.84 v -13.2 h 6.336004 v -3.216 h -6.336004 v -6.768 h -3.84 v 6.768 h -3.12 v 3.216 h 3.12 v 13.728 c 0,3.84 2.784,6.432 7.008004,6.432 z m 25.2,-0.24 h 3.84 v -15.168 c 0,-5.136 -3.408,-8.448 -8.592,-8.448 -2.544,0 -5.088,0.816 -7.2,2.448 v -14.304 h -3.84 v 35.472 h 3.84 v -17.904 c 1.776,-1.584 3.888,-2.352 6.144,-2.352 3.744,0 5.808,2.112 5.808,5.856 z m 20.73597,0.48 c 6.816,0 11.424,-4.944 11.424,-12.336 0,-7.152 -4.272,-11.76 -10.848,-11.76 -6.816,0 -11.376,4.896 -11.376,12.288 0,7.152 4.224,11.808 10.8,11.808 z m 0.528,-3.36 c -4.464,0 -7.488,-3.6 -7.488,-8.928 0,-5.136 2.736,-8.448 7.008,-8.448 4.464,0 7.536,3.648 7.536,8.928 0,5.088 -2.784,8.448 -7.056,8.448 z m 33.16797,2.88 h 3.84 v -15.168 c 0,-5.136 -3.408,-8.448 -8.592,-8.448 -2.64,0 -5.28,0.912 -7.488,2.544 l -0.864,-2.064 h -2.688 v 23.136 h 3.84 v -18.096 c 1.776,-1.392 3.888,-2.16 6.144,-2.16 3.744,0 5.808,2.112 5.808,5.856 z m 22.41594,0 h 3.984 v -11.616 h 5.664 c 7.44,0 12.432,-4.416 12.432,-11.088 0,-6.384 -4.704,-10.608 -11.712,-10.608 h -10.368 z m 3.984,-15.072 v -14.784 h 5.904 c 4.848,0 8.112,3.168 8.112,7.872 0,4.512 -2.688,6.912 -7.632,6.912 z m 29.13601,15.36 c 1.248,0 2.736,-0.288 3.648,-0.768 l -0.864,-2.688 c -0.576,0.24 -1.104,0.384 -1.68,0.384 -1.632,0 -2.496,-1.104 -2.496,-2.88 v -29.808 h -3.84 v 30.288 c 0,3.312 2.064,5.472 5.232,5.472 z m 22.416,-0.288 h 2.688 v -15.024 c 0,-5.52 -3.264,-8.592 -9.312,-8.592 -3.024,0 -6.288,0.816 -8.784,2.208 l 0.96,2.832 c 2.4,-1.056 4.8,-1.584 7.056,-1.584 4.128,0 6.24,1.728 6.24,5.136 v 1.536 c -10.368,0.096 -14.88,2.256 -14.88,7.2 0,4.128 3.072,6.768 7.824,6.768 2.928,0 5.424,-0.96 7.296,-2.64 z m -1.152,-5.184 c -1.44,1.44 -3.552,2.304 -5.952,2.304 -3.072,0 -5.088,-1.536 -5.088,-3.84 0,-2.88 3.264,-4.08 11.04,-4.128 z m 27.21595,5.184 h 3.84 v -15.168 c 0,-5.136 -3.408,-8.448 -8.592,-8.448 -2.64,0 -5.28,0.912 -7.488,2.544 l -0.864,-2.064 h -2.688 v 23.136 h 3.84 v -18.096 c 1.776,-1.392 3.888,-2.16 6.144,-2.16 3.744,0 5.808,2.112 5.808,5.856 z m 21.83998,0.48 c 2.64,0 5.52,-0.624 7.584,-1.728 l -0.864,-2.784 c -1.776,0.864 -4.032,1.392 -6.048,1.392 -4.896,0 -7.968,-2.928 -8.544,-7.872 h 16.128 c 0.096,-0.72 0.192,-2.4 0.192,-3.312 0,-5.808 -3.84,-9.792 -9.552,-9.792 -6.432,0 -10.8,5.04 -10.8,12.144 0,7.392 4.56,11.952 11.904,11.952 z m -7.92,-13.872 c 0.336,-4.512 2.64,-6.96 6.528,-6.96 3.936,0 6.24,2.544 6.24,6.96 z m 48.71996,13.824 c 4.608,0 8.784,-1.344 12.144,-3.984 v -14.112 h -13.44 v 3.456 h 9.456 v 9.312 c -2.352,1.2 -4.944,1.824 -7.584,1.824 -8.016,0 -13.2,-5.52 -13.2,-14.064 0,-8.304 4.752,-13.104 12.864,-13.104 3.024,0 6.528,0.672 9.456,1.776 l 1.152,-3.072 c -2.928,-1.44 -6.432,-2.208 -10.08,-2.208 -10.512,0 -17.472,6.864 -17.472,17.328 0,10.176 6.624,16.848 16.704,16.848 z m 29.42401,0.048 c 2.64,0 5.52,-0.624 7.584,-1.728 l -0.864,-2.784 c -1.776,0.864 -4.032,1.392 -6.048,1.392 -4.896,0 -7.968,-2.928 -8.544,-7.872 h 16.128 c 0.096,-0.72 0.192,-2.4 0.192,-3.312 0,-5.808 -3.84,-9.792 -9.552,-9.792 -6.432,0 -10.8,5.04 -10.8,12.144 0,7.392 4.56,11.952 11.904,11.952 z m -7.92,-13.872 c 0.336,-4.512 2.64,-6.96 6.528,-6.96 3.936,0 6.24,2.544 6.24,6.96 z m 32.15999,13.872 c 6.816,0 11.424,-4.944 11.424,-12.336 0,-7.152 -4.272,-11.76 -10.848,-11.76 -6.816,0 -11.376,4.896 -11.376,12.288 0,7.152 4.224,11.808 10.8,11.808 z m 0.528,-3.36 c -4.464,0 -7.488,-3.6 -7.488,-8.928 0,-5.136 2.736,-8.448 7.008,-8.448 4.464,0 7.536,3.648 7.536,8.928 0,5.088 -2.784,8.448 -7.056,8.448 z m 48.47997,2.88 h 3.84 v -15.168 c 0,-5.136 -3.36,-8.448 -8.496,-8.448 -3.072,0 -6.096,1.248 -8.448,3.456 -1.44,-2.208 -3.888,-3.456 -7.056,-3.456 -2.64,0 -5.232,0.912 -7.392,2.496 l -0.864,-2.016 h -2.688 v 23.136 h 3.84 v -18.096 c 1.728,-1.392 3.792,-2.16 6,-2.16 3.696,0 5.712,2.112 5.712,5.856 v 14.4 h 3.84 v -15.168 c 0,-0.96 -0.096,-1.824 -0.336,-2.64 1.776,-1.584 3.984,-2.448 6.336,-2.448 3.696,0 5.712,2.112 5.712,5.856 z m 21.83999,0.48 c 2.64,0 5.52,-0.624 7.584,-1.728 l -0.864,-2.784 c -1.776,0.864 -4.032,1.392 -6.048,1.392 -4.896,0 -7.968,-2.928 -8.544,-7.872 h 16.128 c 0.096,-0.72 0.192,-2.4 0.192,-3.312 0,-5.808 -3.84,-9.792 -9.552,-9.792 -6.432,0 -10.8,5.04 -10.8,12.144 0,7.392 4.56,11.952 11.904,11.952 z m -7.92,-13.872 c 0.336,-4.512 2.64,-6.96 6.528,-6.96 3.936,0 6.24,2.544 6.24,6.96 z m 30.76799,13.632 c 1.584,0 3.168,-0.384 4.272,-0.864 l -0.864,-2.784 c -0.72,0.336 -1.776,0.528 -2.592,0.528 -2.4,0 -3.984,-1.536 -3.984,-3.84 v -13.2 h 6.336 v -3.216 h -6.336 v -6.768 h -3.84 v 6.768 h -3.12 v 3.216 h 3.12 v 13.728 c 0,3.84 2.784,6.432 7.008,6.432 z m 9.408,-0.24 h 3.84 v -16.512 c 1.488,-2.016 3.84,-3.216 6.432,-3.216 0.912,0 1.776,0.144 2.544,0.432 l 0.96,-3.552 c -1.008,-0.336 -2.016,-0.528 -3.072,-0.528 -2.784,0 -5.376,1.344 -7.104,3.6 l -0.432,-3.36 h -3.168 z m 19.63204,10.416 h 4.08 l 3.84,-10.416 9.024,-23.136 h -3.84 l -6.96,19.392 -6.816,-19.392 h -4.272 l 9.12,23.136 z m 32.49598,-10.416 h 18.912 v -3.552 h -14.928 v -29.76 h -3.984 z m 23.85596,0 h 3.84 v -23.136 h -3.84 z m 1.968,-28.56 c 1.728,0 2.736,-1.008 2.736,-2.736 0,-1.728 -1.008,-2.736 -2.736,-2.736 -1.728,0 -2.736,1.008 -2.736,2.736 0,1.728 1.008,2.736 2.736,2.736 z m 19.68005,29.04 c 6.624,0 11.04,-4.944 11.04,-12.336 0,-7.056 -4.224,-11.76 -10.56,-11.76 -2.592,0 -4.8,0.768 -6.48,2.256 v -14.112 h -3.84 v 35.472 h 2.688 l 0.768,-1.776 c 1.632,1.488 3.792,2.256 6.384,2.256 z m -6,-18.144 c 1.296,-1.68 3.264,-2.592 5.568,-2.592 4.608,0 7.632,3.648 7.632,8.976 0,5.04 -2.736,8.4 -7.2,8.4 -2.544,0 -4.608,-1.056 -6,-2.928 z m 23.51998,17.664 h 3.84 v -16.512 c 1.488,-2.016 3.84,-3.216 6.432,-3.216 0.912,0 1.776,0.144 2.544,0.432 l 0.96,-3.552 c -1.008,-0.336 -2.016,-0.528 -3.072,-0.528 -2.784,0 -5.376,1.344 -7.104,3.6 l -0.432,-3.36 h -3.168 z m 32.40001,0 h 2.688 v -15.024 c 0,-5.52 -3.264,-8.592 -9.312,-8.592 -3.024,0 -6.288,0.816 -8.784,2.208 l 0.96,2.832 c 2.4,-1.056 4.8,-1.584 7.056,-1.584 4.128,0 6.24,1.728 6.24,5.136 v 1.536 c -10.368,0.096 -14.88,2.256 -14.88,7.2 0,4.128 3.072,6.768 7.824,6.768 2.928,0 5.424,-0.96 7.296,-2.64 z m -1.152,-5.184 c -1.44,1.44 -3.552,2.304 -5.952,2.304 -3.072,0 -5.088,-1.536 -5.088,-3.84 0,-2.88 3.264,-4.08 11.04,-4.128 z m 11.42399,5.184 h 3.84 v -16.512 c 1.488,-2.016 3.84,-3.216 6.432,-3.216 0.912,0 1.776,0.144 2.544,0.432 l 0.96,-3.552 c -1.008,-0.336 -2.016,-0.528 -3.072,-0.528 -2.784,0 -5.376,1.344 -7.104,3.6 l -0.432,-3.36 h -3.168 z m 19.63201,10.416 h 4.08 l 3.84,-10.416 9.024,-23.136 h -3.84 l -6.96,19.392 -6.816,-19.392 h -4.272 l 9.12,23.136 z"
       id="text1"
       transform="scale(0.26458333)"
       aria-label="PyPangolin:&#10;Python Plane Geometry Library" />
  </g>
</svg>
