<?xml version="1.0" encoding="UTF-8"?>
<svg xmlns="http://www.w3.org/2000/svg" xmlns:xlink="http://www.w3.org/1999/xlink" width="35" height="63" viewBox="0 0 35 63">
<defs>
<g>
<g id="glyph-0-0">
<path d="M 2.03125 -1.328125 C 1.609375 -0.625 1.203125 -0.375 0.640625 -0.34375 C 0.5 -0.328125 0.40625 -0.328125 0.40625 -0.125 C 0.40625 -0.046875 0.46875 0 0.546875 0 C 0.765625 0 1.296875 -0.03125 1.515625 -0.03125 C 1.859375 -0.03125 2.25 0 2.578125 0 C 2.65625 0 2.796875 0 2.796875 -0.234375 C 2.796875 -0.328125 2.703125 -0.34375 2.625 -0.34375 C 2.359375 -0.375 2.125 -0.46875 2.125 -0.75 C 2.125 -0.921875 2.203125 -1.046875 2.359375 -1.3125 L 3.265625 -2.828125 L 6.3125 -2.828125 C 6.328125 -2.71875 6.328125 -2.625 6.328125 -2.515625 C 6.375 -2.203125 6.515625 -0.953125 6.515625 -0.734375 C 6.515625 -0.375 5.90625 -0.34375 5.71875 -0.34375 C 5.578125 -0.34375 5.453125 -0.34375 5.453125 -0.125 C 5.453125 0 5.5625 0 5.625 0 C 5.828125 0 6.078125 -0.03125 6.28125 -0.03125 L 6.953125 -0.03125 C 7.6875 -0.03125 8.21875 0 8.21875 0 C 8.3125 0 8.4375 0 8.4375 -0.234375 C 8.4375 -0.34375 8.328125 -0.34375 8.15625 -0.34375 C 7.5 -0.34375 7.484375 -0.453125 7.453125 -0.8125 L 6.71875 -8.265625 C 6.6875 -8.515625 6.640625 -8.53125 6.515625 -8.53125 C 6.390625 -8.53125 6.328125 -8.515625 6.21875 -8.328125 Z M 3.46875 -3.171875 L 5.875 -7.1875 L 6.28125 -3.171875 Z M 3.46875 -3.171875 "/>
</g>
<g id="glyph-0-1">
<path d="M 4.375 -7.34375 C 4.484375 -7.796875 4.53125 -7.8125 5 -7.8125 L 6.546875 -7.8125 C 7.90625 -7.8125 7.90625 -6.671875 7.90625 -6.5625 C 7.90625 -5.59375 6.9375 -4.359375 5.359375 -4.359375 L 3.640625 -4.359375 Z M 6.390625 -4.265625 C 7.703125 -4.5 8.875 -5.421875 8.875 -6.515625 C 8.875 -7.453125 8.0625 -8.15625 6.703125 -8.15625 L 2.875 -8.15625 C 2.640625 -8.15625 2.53125 -8.15625 2.53125 -7.9375 C 2.53125 -7.8125 2.640625 -7.8125 2.828125 -7.8125 C 3.546875 -7.8125 3.546875 -7.71875 3.546875 -7.59375 C 3.546875 -7.5625 3.546875 -7.5 3.5 -7.3125 L 1.890625 -0.890625 C 1.78125 -0.46875 1.75 -0.34375 0.921875 -0.34375 C 0.6875 -0.34375 0.578125 -0.34375 0.578125 -0.125 C 0.578125 0 0.640625 0 0.890625 0 L 4.984375 0 C 6.8125 0 8.21875 -1.390625 8.21875 -2.59375 C 8.21875 -3.578125 7.359375 -4.171875 6.390625 -4.265625 Z M 4.703125 -0.34375 L 3.078125 -0.34375 C 2.921875 -0.34375 2.890625 -0.34375 2.828125 -0.359375 C 2.6875 -0.375 2.671875 -0.390625 2.671875 -0.484375 C 2.671875 -0.578125 2.703125 -0.640625 2.71875 -0.75 L 3.5625 -4.125 L 5.8125 -4.125 C 7.21875 -4.125 7.21875 -2.8125 7.21875 -2.71875 C 7.21875 -1.5625 6.1875 -0.34375 4.703125 -0.34375 Z M 4.703125 -0.34375 "/>
</g>
</g>
<clipPath id="clip-0">
<path clip-rule="nonzero" d="M 15.113281 1.132812 L 23.886719 1.132812 L 23.886719 9.300781 L 15.113281 9.300781 Z M 15.113281 1.132812 "/>
</clipPath>
<clipPath id="clip-1">
<path clip-rule="nonzero" d="M 12.027344 32.855469 L 21 32.855469 L 21 41.023438 L 12.027344 41.023438 Z M 12.027344 32.855469 "/>
</clipPath>
</defs>
<path fill="none" stroke-width="0.4" stroke-linecap="butt" stroke-linejoin="round" stroke="rgb(0%, 0%, 0%)" stroke-opacity="1" stroke-miterlimit="10" d="M 82.085938 653.878906 L 107.472656 689.394531 L 78.394531 710.886719 Z M 82.085938 653.878906 " transform="matrix(1, 0, 0, -1, -75, 714)"/>
<path fill-rule="evenodd" fill="rgb(0%, 0%, 0%)" fill-opacity="1" d="M 5.195312 3.113281 C 5.195312 0.714844 1.597656 0.714844 1.597656 3.113281 C 1.597656 5.511719 5.195312 5.511719 5.195312 3.113281 Z M 5.195312 3.113281 "/>
<path fill-rule="evenodd" fill="rgb(0%, 0%, 0%)" fill-opacity="1" d="M 34.273438 24.605469 C 34.273438 22.203125 30.671875 22.203125 30.671875 24.605469 C 30.671875 27.003906 34.273438 27.003906 34.273438 24.605469 Z M 34.273438 24.605469 "/>
<path fill-rule="evenodd" fill="rgb(0%, 0%, 0%)" fill-opacity="1" d="M 8.886719 60.121094 C 8.886719 57.722656 5.289062 57.722656 5.289062 60.121094 C 5.289062 62.523438 8.886719 62.523438 8.886719 60.121094 Z M 8.886719 60.121094 "/>
<g clip-path="url(#clip-0)">
<g fill="rgb(0%, 0%, 0%)" fill-opacity="1">
<use xlink:href="#glyph-0-0" x="15.1135" y="9.3024"/>
</g>
</g>
<path fill="none" stroke-width="0.8" stroke-linecap="butt" stroke-linejoin="round" stroke="rgb(0%, 0%, 54.5%)" stroke-opacity="1" stroke-miterlimit="10" d="M 90.585938 665.769531 L 100.902344 680.207031 " transform="matrix(1, 0, 0, -1, -75, 714)"/>
<g clip-path="url(#clip-1)">
<g fill="rgb(0%, 0%, 0%)" fill-opacity="1">
<use xlink:href="#glyph-0-1" x="12.0282" y="41.0227"/>
</g>
</g>
<path fill-rule="evenodd" fill="rgb(0%, 0%, 0%)" fill-opacity="1" d="M 17.386719 48.230469 C 17.386719 45.832031 13.785156 45.832031 13.785156 48.230469 C 13.785156 50.632812 17.386719 50.632812 17.386719 48.230469 Z M 17.386719 48.230469 "/>
<path fill-rule="evenodd" fill="rgb(0%, 0%, 0%)" fill-opacity="1" d="M 27.703125 33.792969 C 27.703125 31.394531 24.105469 31.394531 24.105469 33.792969 C 24.105469 36.195312 27.703125 36.195312 27.703125 33.792969 Z M 27.703125 33.792969 "/>
</svg>
